<svg width="28" height="29" viewBox="0 0 28 29" fill="none" xmlns="http://www.w3.org/2000/svg">
<path fill-rule="evenodd" clip-rule="evenodd" d="M14 21.75C17.866 21.75 21 18.5041 21 14.5C21 10.4959 17.866 7.25 14 7.25C10.134 7.25 7 10.4959 7 14.5C7 18.5041 10.134 21.75 14 21.75ZM14 19.3333C16.5773 19.3333 18.6667 17.1693 18.6667 14.5C18.6667 11.8306 16.5773 9.66667 14 9.66667C11.4227 9.66667 9.33333 11.8306 9.33333 14.5C9.33333 17.1693 11.4227 19.3333 14 19.3333Z" fill="#EEEEEE"/>
<path d="M20.9999 6.04199C20.3556 6.04199 19.8333 6.58299 19.8333 7.25033C19.8333 7.91766 20.3556 8.45866 20.9999 8.45866C21.6443 8.45866 22.1666 7.91766 22.1666 7.25033C22.1666 6.58299 21.6443 6.04199 20.9999 6.04199Z" fill="#EEEEEE"/>
<path fill-rule="evenodd" clip-rule="evenodd" d="M1.9297 5.16658C1.16675 6.71744 1.16675 8.74763 1.16675 12.808V16.1913C1.16675 20.2517 1.16675 22.2819 1.9297 23.8327C2.60081 25.1969 3.67167 26.3061 4.98882 27.0011C6.4862 27.7913 8.44639 27.7913 12.3667 27.7913H15.6334C19.5538 27.7913 21.514 27.7913 23.0113 27.0011C24.3285 26.3061 25.3993 25.1969 26.0704 23.8327C26.8334 22.2819 26.8334 20.2517 26.8334 16.1913V12.808C26.8334 8.74763 26.8334 6.71744 26.0704 5.16658C25.3993 3.8024 24.3285 2.69329 23.0113 1.99821C21.514 1.20801 19.5538 1.20801 15.6334 1.20801H12.3667C8.44639 1.20801 6.4862 1.20801 4.98882 1.99821C3.67167 2.69329 2.60081 3.8024 1.9297 5.16658ZM15.6334 3.62467H12.3667C10.3681 3.62467 9.00937 3.62656 7.95917 3.71542C6.93619 3.80199 6.41306 3.95889 6.04813 4.15147C5.17004 4.61487 4.45613 5.35427 4.00871 6.26372C3.82277 6.64169 3.67128 7.18351 3.5877 8.24302C3.5019 9.33073 3.50008 10.7379 3.50008 12.808V16.1913C3.50008 18.2615 3.5019 19.6686 3.5877 20.7563C3.67128 21.8159 3.82277 22.3577 4.00871 22.7357C4.45613 23.6451 5.17004 24.3844 6.04813 24.8478C6.41306 25.0404 6.93619 25.1974 7.95917 25.2839C9.00937 25.3727 10.3681 25.3747 12.3667 25.3747H15.6334C17.6321 25.3747 18.9907 25.3727 20.041 25.2839C21.064 25.1974 21.5871 25.0404 21.9521 24.8478C22.8301 24.3844 23.544 23.6451 23.9914 22.7357C24.1774 22.3577 24.3289 21.8159 24.4125 20.7563C24.4982 19.6686 24.5001 18.2615 24.5001 16.1913V12.808C24.5001 10.7379 24.4982 9.33073 24.4125 8.24302C24.3289 7.18351 24.1774 6.64169 23.9914 6.26372C23.544 5.35427 22.8301 4.61487 21.9521 4.15147C21.5871 3.95889 21.064 3.80199 20.041 3.71542C18.9907 3.62656 17.6321 3.62467 15.6334 3.62467Z" fill="#EEEEEE"/>
</svg>
