<svg width="19" height="17" viewBox="0 0 19 17" fill="none" xmlns="http://www.w3.org/2000/svg">
<path fill-rule="evenodd" clip-rule="evenodd" d="M3.26713 13.2298H15.6756L17.6145 7.75087C17.715 7.784 17.8233 7.80136 17.9346 7.80136C18.5222 7.80136 19 7.31546 19 6.7144C19 6.11492 18.5237 5.62745 17.9346 5.62745C17.347 5.62745 16.8693 6.11335 16.8693 6.7144C16.8693 6.95104 16.9435 7.16875 17.0687 7.34701L15.9678 8.27147C14.4262 9.56509 13.4598 8.96561 13.7614 6.95577L13.9314 5.82465C13.9902 5.83569 14.052 5.84042 14.1139 5.84042C14.7015 5.84042 15.1792 5.35453 15.1792 4.75347C15.1792 4.15399 14.703 3.66652 14.1139 3.66652C13.5263 3.66652 13.0485 4.15241 13.0485 4.75347C13.0485 5.09581 13.2047 5.40186 13.4475 5.60063L13.1831 6.02658C11.8873 8.01117 10.9318 7.25078 10.5498 5.28985L9.86796 2.08579C10.2499 1.92014 10.5189 1.53521 10.5189 1.08402C10.5189 0.484542 10.0427 -0.00292969 9.45357 -0.00292969C8.86601 -0.00292969 8.38822 0.482965 8.38822 1.08402C8.38822 1.58569 8.72066 2.00691 9.17216 2.13311L8.72994 3.95995C8.34648 5.63376 7.88725 8.96876 5.81067 6.12597L5.47205 5.65585C5.73954 5.45865 5.91427 5.13682 5.91427 4.77398C5.91427 4.1745 5.43803 3.68703 4.84892 3.68703C4.26135 3.68703 3.78357 4.17292 3.78357 4.77398C3.78357 5.37346 4.25981 5.86093 4.84892 5.86093C4.93087 5.86093 5.01127 5.85147 5.08858 5.83254L5.15971 6.57084C5.29887 7.57892 5.47668 8.94352 4.34176 8.87884C3.77893 8.84729 3.5671 8.65167 3.13725 8.33931L1.90955 7.45113C2.04716 7.26813 2.12911 7.03938 2.12911 6.79013C2.12911 6.19065 1.65287 5.70318 1.06376 5.70318C0.476196 5.70318 -0.00158691 6.18907 -0.00158691 6.79013C-0.00158691 7.39119 0.47465 7.87708 1.06376 7.87708C1.20292 7.87708 1.33435 7.85026 1.4565 7.80136L3.26713 13.2298ZM3.25785 14.7459H15.7065V17.0002H3.25785V14.7459Z" fill="white"/>
</svg>
