<svg width="24" height="21" viewBox="0 0 24 21" fill="none" xmlns="http://www.w3.org/2000/svg">
<path fill-rule="evenodd" clip-rule="evenodd" d="M4.12695 16.3424H19.8008L22.25 9.57433C22.377 9.61525 22.5137 9.63669 22.6543 9.63669C23.3965 9.63669 24 9.03647 24 8.29398C24 7.55345 23.3984 6.95128 22.6543 6.95128C21.9121 6.95128 21.3086 7.5515 21.3086 8.29398C21.3086 8.5863 21.4023 8.85523 21.5605 9.07544L20.1699 10.2174C18.2227 11.8154 17.002 11.0749 17.3828 8.59215L17.5977 7.19488C17.6719 7.20852 17.75 7.21436 17.8281 7.21436C18.5703 7.21436 19.1738 6.61414 19.1738 5.87166C19.1738 5.13112 18.5723 4.52895 17.8281 4.52895C17.0859 4.52895 16.4824 5.12917 16.4824 5.87166C16.4824 6.29454 16.6797 6.6726 16.9863 6.91815L16.6523 7.44432C15.0156 9.89588 13.8086 8.95657 13.3262 6.53424L12.4648 2.57628C12.9473 2.37166 13.2871 1.89616 13.2871 1.33881C13.2871 0.598273 12.6855 -0.00389862 11.9414 -0.00389862C11.1992 -0.00389862 10.5957 0.596324 10.5957 1.33881C10.5957 1.95852 11.0156 2.47884 11.5859 2.63474L11.0273 4.89142C10.543 6.95907 9.96289 11.0788 7.33984 7.56709L6.91211 6.98636C7.25 6.74276 7.4707 6.34521 7.4707 5.89699C7.4707 5.15646 6.86914 4.55429 6.125 4.55429C5.38281 4.55429 4.7793 5.15451 4.7793 5.89699C4.7793 6.63753 5.38086 7.2397 6.125 7.2397C6.22852 7.2397 6.33008 7.228 6.42773 7.20462L6.51758 8.11665C6.69336 9.36191 6.91797 11.0476 5.48438 10.9677C4.77344 10.9287 4.50586 10.6871 3.96289 10.3012L2.41211 9.20406C2.58594 8.978 2.68945 8.69543 2.68945 8.38753C2.68945 7.64699 2.08789 7.04482 1.34375 7.04482C0.601563 7.04482 -0.00195312 7.64504 -0.00195312 8.38753C-0.00195312 9.13001 0.599609 9.73023 1.34375 9.73023C1.51953 9.73023 1.68555 9.6971 1.83984 9.63669L4.12695 16.3424ZM4.11523 18.2152H19.8398V21H4.11523V18.2152Z" fill="black"/>
</svg>
