<svg width="25" height="26" viewBox="0 0 25 26" fill="none" xmlns="http://www.w3.org/2000/svg">
<path d="M23.25 6.35982H22.0278C20.7312 6.35982 19.4877 5.82146 18.5708 4.86319C17.654 3.90491 17.1389 2.60521 17.1389 1.25H12.25V15.9407C12.25 16.4851 12.1169 17.0204 11.8632 17.4959C11.6096 17.9714 11.2439 18.3712 10.8008 18.6574C10.3578 18.9436 9.8521 19.1067 9.33179 19.1311C8.81147 19.1556 8.29381 19.0407 7.82796 18.7972C7.3621 18.5537 6.96352 18.1899 6.67006 17.7401C6.37661 17.2904 6.19801 16.7697 6.15123 16.2275C6.10446 15.6854 6.19106 15.1397 6.40281 14.6423C6.61457 14.145 6.94444 13.7124 7.36111 13.3858V7.86721C5.9086 8.22727 4.58254 9.00779 3.53491 10.1193C2.48729 11.2308 1.76049 12.6283 1.43781 14.1517C1.11514 15.6751 1.20965 17.2627 1.71051 18.7325C2.21137 20.2023 3.09832 21.4949 4.2697 22.4621C5.44107 23.4293 6.84947 24.032 8.33348 24.2011C9.8175 24.3702 11.3171 24.0988 12.6603 23.4181C14.0036 22.7375 15.1362 21.675 15.9283 20.3525C16.7204 19.03 17.1399 17.501 17.1389 15.9407V10.09C18.6243 10.9906 20.3105 11.4664 22.0278 11.4696H23.25V6.35982Z" stroke="#EEEEEE" stroke-width="2.5" stroke-linecap="round" stroke-linejoin="round"/>
</svg>
