<svg width="28" height="30" viewBox="0 0 28 30" fill="none" xmlns="http://www.w3.org/2000/svg">
<path fill-rule="evenodd" clip-rule="evenodd" d="M23.3332 1.25C25.2662 1.25 26.8332 2.92894 26.8332 5V25C26.8332 27.0711 25.2662 28.75 23.3332 28.75H4.6665C2.73351 28.75 1.1665 27.0711 1.1665 25V5C1.1665 2.92894 2.73351 1.25 4.6665 1.25H23.3332ZM23.3332 3.75C23.9775 3.75 24.4998 4.30965 24.4998 5V25C24.4998 25.6904 23.9775 26.25 23.3332 26.25H17.4998V17.4999H19.9221C20.4242 17.4999 20.87 17.1556 21.0289 16.6451L21.5457 14.9839C21.7346 14.3767 21.3129 13.7499 20.7156 13.7499H17.4998V11.2499C17.4998 10.6249 18.0832 9.9999 18.6665 9.9999H20.9998C21.6442 9.9999 22.1665 9.44025 22.1665 8.7499V7.89241C22.1665 7.48864 21.9258 7.12662 21.5614 7.02359C20.0321 6.59119 18.6665 6.59119 18.6665 6.59119C15.7498 6.59119 13.9998 8.7499 13.9998 10.6249V13.7499H11.6665C11.0222 13.7499 10.4998 14.3095 10.4998 14.9999V16.2499C10.4998 16.9402 11.0222 17.4999 11.6665 17.4999H13.9998V26.25H4.6665C4.02218 26.25 3.49984 25.6904 3.49984 25V5C3.49984 4.30965 4.02218 3.75 4.6665 3.75H23.3332Z" fill="#3B3B3B"/>
</svg>
