<svg width="25" height="26" viewBox="0 0 25 26" fill="none" xmlns="http://www.w3.org/2000/svg">
<path d="M23.5 6.60982H22.2778C20.9812 6.60982 19.7377 6.07146 18.8208 5.11319C17.904 4.15491 17.3889 2.85521 17.3889 1.5H12.5V16.1907C12.5 16.7351 12.3669 17.2704 12.1132 17.7459C11.8596 18.2214 11.4939 18.6212 11.0508 18.9074C10.6078 19.1936 10.1021 19.3567 9.58179 19.3811C9.06147 19.4056 8.54381 19.2907 8.07796 19.0472C7.6121 18.8037 7.21352 18.4399 6.92006 17.9901C6.62661 17.5404 6.44801 17.0197 6.40123 16.4775C6.35446 15.9354 6.44106 15.3897 6.65281 14.8923C6.86457 14.395 7.19444 13.9624 7.61111 13.6358V8.11721C6.1586 8.47727 4.83254 9.25779 3.78491 10.3693C2.73729 11.4808 2.01049 12.8783 1.68781 14.4017C1.36514 15.9251 1.45965 17.5127 1.96051 18.9825C2.46137 20.4523 3.34832 21.7449 4.5197 22.7121C5.69107 23.6793 7.09947 24.282 8.58348 24.4511C10.0675 24.6202 11.5671 24.3488 12.9103 23.6681C14.2536 22.9875 15.3862 21.925 16.1783 20.6025C16.9704 19.28 17.3899 17.751 17.3889 16.1907V10.34C18.8743 11.2406 20.5605 11.7164 22.2778 11.7196H23.5V6.60982Z" stroke="#3B3B3B" stroke-width="3" stroke-linecap="round" stroke-linejoin="round"/>
</svg>
